<?xml version="1.0" encoding="UTF-8"?>
<svg version="1.1" xmlns="http://www.w3.org/2000/svg" width="271" height="268">
<path d="M0 0 C89.43 0 178.86 0 271 0 C271 88.44 271 176.88 271 268 C181.57 268 92.14 268 0 268 C0 179.56 0 91.12 0 0 Z " fill="#C81B34" transform="translate(0,0)"/>
<path d="M0 0 C89.43 0 178.86 0 271 0 C271 41.58 271 83.16 271 126 C269 124 269 124 267.6875 121.1875 C265.89075013 117.79363914 263.73266697 115.60936945 261 113 C258.30274031 110.40572464 255.61793726 107.79914511 252.9375 105.1875 C252.23044922 104.51396484 251.52339844 103.84042969 250.79492188 103.14648438 C243.68722149 96.17226194 239.93417469 89.36942076 239.7890625 79.2421875 C239.76096677 77.88019687 239.73230217 76.51821789 239.703125 75.15625 C239.66211577 73.02376985 239.62520559 70.89150052 239.59863281 68.75878906 C239.44039731 57.05481796 238.75801879 46.58730593 230 38 C222.19131514 33.24318315 213.75243953 33.40991618 204.875 33.375 C181.45335185 33.14604938 181.45335185 33.14604938 172.66210938 24.7734375 C169.08409081 21.10507876 165.5674818 17.38470497 162.08984375 13.62109375 C155.3031415 6.55616652 149.37596682 2.94486323 139.65234375 1.50390625 C132.99708886 1.64754484 127.24890798 2.67739704 121 5 C121 5.66 121 6.32 121 7 C119.7421875 8.234375 119.7421875 8.234375 117.875 9.75 C114.98086942 12.18148093 112.27928353 14.70543169 109.66796875 17.43359375 C109.0745166 18.04944336 108.48106445 18.66529297 107.86962891 19.29980469 C106.69072295 20.53126927 105.52186191 21.77245269 104.36474609 23.02441406 C98.12502824 29.49827773 90.84119026 32.73803693 81.8371582 33.1418457 C80.08665161 33.1586438 80.08665161 33.1586438 78.30078125 33.17578125 C77.00849609 33.19962891 75.71621094 33.22347656 74.38476562 33.24804688 C72.3554445 33.28294681 70.32670206 33.31240538 68.29711914 33.32592773 C54.63465973 33.33671222 54.63465973 33.33671222 43.09692383 39.86645508 C35.08216369 49.37832395 35.55448508 60.78821051 35.56420898 72.57080078 C35.54641824 82.56919912 35.0255008 91.30191497 27.875 98.9375 C27.276875 99.58203125 26.67875 100.2265625 26.0625 100.890625 C21.20579222 105.8577125 16.29376885 110.76307381 11.3203125 115.61328125 C7.36200458 119.68487408 6.46334408 122.98110852 5.8125 128.4375 C5.72500488 129.14455078 5.63750977 129.85160156 5.54736328 130.58007812 C4.86014506 136.81422949 5.12905181 142.78566699 6 149 C6.66 149 7.32 149 8 149 C9.26953125 150.29296875 9.26953125 150.29296875 10.8125 152.1875 C13.65677165 155.56357875 16.66087554 158.64924325 19.83569336 161.70654297 C27.27847624 168.89783071 34.61446955 176.2828263 35.15771484 187.15698242 C35.17527832 188.37748291 35.1928418 189.5979834 35.2109375 190.85546875 C35.23902607 192.21420434 35.26769065 193.57292813 35.296875 194.93164062 C35.33791255 197.05313525 35.37483637 199.17441429 35.40136719 201.29614258 C35.55351404 212.51697289 35.99193309 221.80340996 43.97265625 230.2734375 C50.77478139 236.06638415 58.94749078 237.08961308 67.61328125 237.17578125 C68.86173828 237.19962891 70.11019531 237.22347656 71.39648438 237.24804688 C73.9952786 237.29082005 76.59428723 237.3221763 79.19335938 237.34179688 C89.48844116 237.56963451 96.00619792 238.83795649 103.46484375 246.1171875 C104.96878807 247.69074671 106.45954705 249.27700371 107.9375 250.875 C114.94095793 258.4134016 121.81351177 263.40675588 131 268 C87.77 268 44.54 268 0 268 C0 179.56 0 91.12 0 0 Z " fill="#000000" transform="translate(0,0)"/>
<path d="M0 0 C7.83543781 2.51853358 11.74998899 8.59390783 15.4921875 15.57421875 C20.65585753 26.27039238 22.18566699 39.16056486 18.84375 50.7578125 C15.78867795 58.09847173 10.41914388 62.33725587 3.82421875 66.46875 C2.02722757 67.49993445 2.02722757 67.49993445 0.96875 68.6328125 C0.88084025 70.92432667 0.86180962 73.21853774 0.87109375 75.51171875 C0.8725087 76.1983812 0.87392365 76.88504364 0.87538147 77.59251404 C0.88099521 79.79349051 0.89354993 81.99436659 0.90625 84.1953125 C0.91126324 85.68424333 0.91582645 87.17317574 0.91992188 88.66210938 C0.93096907 92.31904325 0.94824287 95.97591808 0.96875 99.6328125 C7.1203355 94.4315409 12.82029425 88.87193368 18.46875 83.1328125 C20.08079413 81.49489286 21.69534861 79.85943984 23.3125 78.2265625 C24.01568359 77.51177734 24.71886719 76.79699219 25.44335938 76.06054688 C27.51259366 74.07132938 29.61531593 72.19502492 31.78881836 70.32373047 C35.91305194 66.74137357 39.71520872 62.91578503 43.50390625 58.984375 C44.90354264 57.5526477 46.30395609 56.1216797 47.70507812 54.69140625 C49.88038107 52.46655816 52.05065983 50.23764299 54.20825195 47.99560547 C56.31385623 45.81125811 58.43811375 43.64659221 60.56640625 41.484375 C61.20514175 40.81153473 61.84387726 40.13869446 62.50196838 39.44546509 C66.58304275 35.33993753 69.12706133 33.7708606 74.96875 33.6328125 C76.96875 36.6328125 76.96875 36.6328125 76.8203125 39.8359375 C75.86263161 44.10596422 74.36131229 47.52884145 72.34375 51.3828125 C71.9825708 52.0830957 71.6213916 52.78337891 71.24926758 53.50488281 C63.73798228 67.87143156 54.91577438 81.31873524 39.96875 88.6328125 C39.33098633 88.95233887 38.69322266 89.27186523 38.03613281 89.60107422 C29.90672137 93.65829774 21.85746555 97.53621129 12.96875 99.6328125 C12.96875 100.2928125 12.96875 100.9528125 12.96875 101.6328125 C12.30875 101.6328125 11.64875 101.6328125 10.96875 101.6328125 C10.5975 102.4990625 10.5975 102.4990625 10.21875 103.3828125 C8.80191683 105.9331122 7.09247463 107.65066951 4.96875 109.6328125 C6.46721794 113.25682463 8.52663493 115.2645828 11.46875 117.8203125 C12.3659375 118.60792969 13.263125 119.39554687 14.1875 120.20703125 C15.56421875 121.40779297 15.56421875 121.40779297 16.96875 122.6328125 C18.63823206 124.12967836 20.30496623 125.62961546 21.96875 127.1328125 C22.79117188 127.87273437 23.61359375 128.61265625 24.4609375 129.375 C26.15467894 130.89989494 27.84736169 132.42596652 29.5390625 133.953125 C35.68093712 139.49395991 41.85576749 144.98746187 48.15625 150.34765625 C54.10094445 155.40871345 60.00945342 160.49953348 65.78125 165.7578125 C66.29075195 166.21897461 66.80025391 166.68013672 67.32519531 167.15527344 C71.86372771 171.32369746 71.86372771 171.32369746 72.13671875 174.7265625 C72.14316406 175.520625 72.14960938 176.3146875 72.15625 177.1328125 C72.17042969 177.926875 72.18460938 178.7209375 72.19921875 179.5390625 C71.96875 181.6328125 71.96875 181.6328125 69.96875 183.6328125 C65.61001624 184.54830863 61.56295356 184.61301365 57.70703125 182.2421875 C55.67065867 180.45793724 53.81682219 178.61097673 51.96875 176.6328125 C51.18886719 175.8696875 50.40898437 175.1065625 49.60546875 174.3203125 C46.61355794 171.2707797 43.85206611 168.07977937 41.09375 164.8203125 C40.02498153 163.56620002 38.95597288 162.31229218 37.88671875 161.05859375 C37.37931152 160.46256348 36.8719043 159.8665332 36.34912109 159.25244141 C31.94285908 154.0824481 27.43086149 149.01782618 22.84375 144.0078125 C22.38758301 143.50958984 21.93141602 143.01136719 21.46142578 142.49804688 C18.78575497 139.58512897 16.08821509 136.69462268 13.37109375 133.8203125 C12.77377441 133.18561035 12.17645508 132.5509082 11.56103516 131.89697266 C10.3891513 130.6530718 9.21313721 129.41304711 8.03271484 128.17724609 C3.96875 123.8564278 3.96875 123.8564278 3.96875 121.6328125 C3.30875 121.6328125 2.64875 121.6328125 1.96875 121.6328125 C2.12605591 122.1870993 2.28336182 122.74138611 2.44543457 123.31246948 C3.01225636 125.82571657 3.20382954 128.18563789 3.34179688 130.75830078 C3.42693542 132.29238083 3.42693542 132.29238083 3.51379395 133.85745239 C3.57111694 134.96152435 3.62843994 136.06559631 3.6875 137.203125 C3.78170227 138.92847977 3.78170227 138.92847977 3.87780762 140.68869019 C4.07842909 144.37821128 4.27368714 148.06799376 4.46875 151.7578125 C4.66457823 155.38764587 4.8614649 159.01741935 5.05908203 162.64715576 C5.18585292 165.00834457 5.3092529 167.36971688 5.42919922 169.73126221 C5.69332936 174.88829351 5.98270242 180.03368146 6.42578125 185.17871094 C6.49116089 186.00426483 6.55654053 186.82981873 6.62390137 187.6803894 C6.7444788 189.16339425 6.88193319 190.64518555 7.0411377 192.12454224 C7.43229383 197.17342066 6.16672656 199.77889541 2.96875 203.6328125 C-0.03125 205.6328125 -0.03125 205.6328125 -2.40625 205.6328125 C-6.21940808 204.18018085 -8.36545675 202.30506003 -10.03125 198.6328125 C-11.47327134 186.11987387 -9.32291406 172.5890539 -8.53125 160.0703125 C-8.24573807 155.54842942 -7.96525268 151.02627179 -7.6875 146.50390625 C-7.62187866 145.49106064 -7.55625732 144.47821503 -7.48864746 143.43467712 C-7.06241181 136.49287502 -6.95857563 129.5869136 -7.03125 122.6328125 C-13.23746633 129.49473642 -13.23746633 129.49473642 -19.34375 136.4453125 C-21.44266514 138.86489523 -23.58387201 141.23262428 -25.78125 143.5625 C-31.5421547 149.68410202 -36.96428393 155.8622959 -41.90942383 162.6706543 C-42.90686079 164.0242738 -43.96385173 165.33364847 -45.03125 166.6328125 C-45.69125 166.6328125 -46.35125 166.6328125 -47.03125 166.6328125 C-47.27875 167.19484375 -47.52625 167.756875 -47.78125 168.3359375 C-49.24399867 171.02373819 -50.99929873 173.09686732 -53.03125 175.3828125 C-53.7325 176.18203125 -54.43375 176.98125 -55.15625 177.8046875 C-57.03125 179.6328125 -57.03125 179.6328125 -59.03125 179.6328125 C-59.03125 180.2928125 -59.03125 180.9528125 -59.03125 181.6328125 C-60.82218191 181.71367397 -62.61414628 181.77193952 -64.40625 181.8203125 C-65.40398437 181.85511719 -66.40171875 181.88992187 -67.4296875 181.92578125 C-68.28820312 181.82910156 -69.14671875 181.73242188 -70.03125 181.6328125 C-72.06280057 178.58548665 -72.34685065 177.73861445 -72.40625 174.2578125 C-72.43460938 173.50757813 -72.46296875 172.75734375 -72.4921875 171.984375 C-71.44580301 166.64604058 -66.86323511 163.51009229 -62.78125 160.3203125 C-58.64154184 157.0052474 -54.82471479 153.59548031 -51.17578125 149.75 C-48.5989621 147.20603647 -45.87681034 144.86219208 -43.14331055 142.48876953 C-39.86874002 139.61126576 -36.70066434 136.62511725 -33.53125 133.6328125 C-32.14587247 132.32938548 -30.7604545 131.02600145 -29.375 129.72265625 C-28.66730469 129.0560498 -27.95960937 128.38944336 -27.23046875 127.70263672 C-23.50287024 124.19435739 -19.76661112 120.69532233 -16.03125 117.1953125 C-14.67704448 115.92582269 -13.32287414 114.65629536 -11.96875 113.38671875 C-10.98958333 112.46875 -10.01041667 111.55078125 -9.03125 110.6328125 C-11.16230777 104.30472568 -15.61331481 100.42206993 -20.21875 95.7578125 C-21.05728516 94.86578125 -21.89582031 93.97375 -22.75976562 93.0546875 C-27.44816841 87.97436542 -27.44816841 87.97436542 -33.8671875 86.53125 C-34.91132812 86.89476563 -35.95546875 87.25828125 -37.03125 87.6328125 C-40.97855277 88.20507386 -44.37284258 88.55265791 -47.9609375 86.5625 C-57.52096126 78.66853847 -65.21138131 67.69549291 -72.984375 58.12109375 C-75.91927184 54.55328977 -78.95796669 51.08160953 -82.03125 47.6328125 C-81.70125 46.9728125 -81.37125 46.3128125 -81.03125 45.6328125 C-80.40464478 46.26727295 -80.40464478 46.26727295 -79.76538086 46.91455078 C-77.83591929 48.86504553 -75.90236744 50.81143792 -73.96875 52.7578125 C-73.31197266 53.42296875 -72.65519531 54.088125 -71.97851562 54.7734375 C-65.82550444 61.06722195 -65.82550444 61.06722195 -59.03125 66.6328125 C-58.37125 66.6328125 -57.71125 66.6328125 -57.03125 66.6328125 C-58.32948475 62.81718855 -59.78091858 60.56190371 -62.71875 57.8203125 C-68.51840246 52.23117374 -73.75497797 46.47484775 -78.03125 39.6328125 C-74.36766984 41.16440781 -72.11211589 43.36052201 -69.37109375 46.203125 C-68.0572168 47.54697266 -68.0572168 47.54697266 -66.71679688 48.91796875 C-64.8789716 50.81718548 -63.04304418 52.71824048 -61.20898438 54.62109375 C-60.33435547 55.51441406 -59.45972656 56.40773437 -58.55859375 57.328125 C-57.76187256 58.15328613 -56.96515137 58.97844727 -56.14428711 59.82861328 C-54.11408543 61.95748398 -54.11408543 61.95748398 -51.03125 61.6328125 C-51.61070005 58.3483721 -52.54985416 56.75787354 -54.9453125 54.4609375 C-55.53876465 53.88230957 -56.1322168 53.30368164 -56.74365234 52.70751953 C-57.37480957 52.10536621 -58.0059668 51.50321289 -58.65625 50.8828125 C-59.93415888 49.63732962 -61.21021802 48.38994589 -62.484375 47.140625 C-63.40379883 46.24005371 -63.40379883 46.24005371 -64.34179688 45.32128906 C-67.41753682 42.247327 -70.26308208 38.98375262 -73.03125 35.6328125 C-70.03125 35.6328125 -70.03125 35.6328125 -68.48828125 36.91796875 C-67.67423828 37.79775391 -67.67423828 37.79775391 -66.84375 38.6953125 C-63.71201204 41.96550624 -60.45456717 44.97374708 -57.01953125 47.921875 C-55.68958495 49.06630816 -54.37436594 50.22807271 -53.07421875 51.40625 C-52.46191406 51.95539063 -51.84960938 52.50453125 -51.21875 53.0703125 C-50.67605469 53.56402344 -50.13335937 54.05773437 -49.57421875 54.56640625 C-47.93253353 55.91709251 -47.93253353 55.91709251 -45.03125 55.6328125 C-46.5704301 51.96529245 -48.78610452 49.64700677 -51.6015625 46.8671875 C-52.49746094 45.97773437 -53.39335938 45.08828125 -54.31640625 44.171875 C-55.25355469 43.25148437 -56.19070312 42.33109375 -57.15625 41.3828125 C-58.11113637 40.43796394 -59.06556859 39.49265617 -60.01953125 38.546875 C-62.35234087 36.23762912 -64.68969086 33.93318047 -67.03125 31.6328125 C-66.70125 30.9728125 -66.37125 30.3128125 -66.03125 29.6328125 C-65.14824219 30.39464844 -64.26523438 31.15648438 -63.35546875 31.94140625 C-57.81569107 36.71097237 -52.27565145 41.46986057 -46.59375 46.0703125 C-41.96806191 49.83170909 -37.42390026 53.68042505 -32.90625 57.5703125 C-32.24181885 58.1387085 -31.5773877 58.70710449 -30.89282227 59.29272461 C-29.96747681 60.09335327 -29.96747681 60.09335327 -29.0234375 60.91015625 C-28.47026855 61.38702881 -27.91709961 61.86390137 -27.34716797 62.35522461 C-25.64702819 64.00584269 -25.06553067 65.14683357 -24.8984375 67.515625 C-24.90101562 68.25554687 -24.90359375 68.99546875 -24.90625 69.7578125 C-24.90238281 70.84449219 -24.90238281 70.84449219 -24.8984375 71.953125 C-25.03125 74.6328125 -25.03125 74.6328125 -25.45166016 76.50854492 C-25.89160634 78.63901094 -26.1545736 80.45783263 -26.03125 82.6328125 C-24.26615923 85.15570726 -22.90717471 86.72105276 -20.65625 88.6953125 C-20.15480469 89.17291016 -19.65335938 89.65050781 -19.13671875 90.14257812 C-14.67176404 94.31246725 -9.8759008 97.86475077 -5.03125 101.6328125 C-4.70125 90.4128125 -4.37125 79.1928125 -4.03125 67.6328125 C-5.68125 66.9728125 -7.33125 66.3128125 -9.03125 65.6328125 C-16.87227382 59.91816802 -21.03140738 54.29895456 -23.78125 45.1328125 C-25.20845195 30.86079304 -22.03342009 17.20356908 -12.8515625 5.96484375 C-9.03395345 2.23309787 -5.55268951 -0.68306895 0 0 Z " fill="#FDFAFA" transform="translate(139.03125,30.3671875)"/>
<path d="M0 0 C0.33 0 0.66 0 1 0 C1 41.25 1 82.5 1 125 C-40.91 125 -82.82 125 -126 125 C-123.49755301 123.7487765 -120.95673396 122.5687684 -118.37109375 121.5 C-111.50701843 118.06875661 -106.6705354 111.79361099 -101.50976562 106.265625 C-94.11471089 98.56884747 -88.86821688 95.01470088 -78.09375 94.4609375 C-75.56278185 94.41353123 -73.03139113 94.38530068 -70.5 94.375 C-53.62344005 94.46206084 -53.62344005 94.46206084 -39 87 C-32.81055768 80.46746221 -30.77137835 73.89530927 -30.7265625 64.88671875 C-30.70626773 63.54230947 -30.68541684 62.19790849 -30.6640625 60.85351562 C-30.64157086 58.77377241 -30.62501939 56.69436087 -30.61914062 54.61450195 C-30.56341377 42.8714602 -29.35630437 33.70448328 -20.9375 25.0625 C-20.4643335 24.5665332 -19.99116699 24.07056641 -19.50366211 23.55957031 C-17.04994466 21.0067005 -14.52562505 18.53147535 -11.9765625 16.07421875 C-6.79017975 11.0577969 -2.6877568 6.78338622 0 0 Z " fill="#000000" transform="translate(270,143)"/>
<path d="M0 0 C4.24007787 3.44012284 7.94996634 7.28031751 11.6875 11.25 C12.69559019 12.29328819 13.70534689 13.33496875 14.71679688 14.375 C17.16399112 16.89845358 19.58802732 19.44280467 22 22 C19 22 19 22 17.28930664 20.53466797 C16.66918701 19.86064941 16.04906738 19.18663086 15.41015625 18.4921875 C14.36649902 17.38605103 14.36649902 17.38605103 13.30175781 16.25756836 C12.56280273 15.4713208 11.82384766 14.68507324 11.0625 13.875 C2.64019836 5.23671912 -4.18262294 -1.10270925 -16.8125 -1.5625 C-30.86577595 -0.79383092 -39.54235878 9.27054393 -48.77148438 18.84472656 C-49.69864258 19.79750488 -49.69864258 19.79750488 -50.64453125 20.76953125 C-51.19471924 21.34292236 -51.74490723 21.91631348 -52.31176758 22.50708008 C-54.14479636 24.12804479 -55.70519365 25.14649407 -58 26 C-58.99 25.67 -59.98 25.34 -61 25 C-59.87335938 24.36707031 -58.74671875 23.73414062 -57.5859375 23.08203125 C-52.17990378 19.70474928 -48.01233068 15.26636982 -43.625 10.6875 C-42.03836802 9.04121066 -40.44744849 7.39903897 -38.8515625 5.76171875 C-37.81249756 4.678302 -37.81249756 4.678302 -36.75244141 3.57299805 C-35 2 -35 2 -33 2 C-33 1.34 -33 0.68 -33 0 C-21.87401968 -5.51376016 -11.10691312 -5.89789587 0 0 Z " fill="#F3DEE1" transform="translate(154,5)"/>
<path d="M0 0 C5.66399154 4.69990787 10.83698892 9.75934966 16 15 C16.95740577 15.93844724 17.91553679 16.87615638 18.875 17.8125 C25.386587 24.51560427 26.39605307 30.48041697 26.36791992 39.61010742 C26.23611551 45.4051288 25.47289633 49.21303479 22 54 C19.25 56.5 19.25 56.5 17 58 C18.00528369 55.98492462 19.01422008 53.97204278 20.03515625 51.96484375 C20.37417969 51.29582031 20.71320313 50.62679687 21.0625 49.9375 C21.40410156 49.26589844 21.74570312 48.59429687 22.09765625 47.90234375 C25.13674544 41.49525961 24.86415636 34.62249308 22.5625 28 C19.31536773 20.7223364 13.55038364 15.51943818 7.96875 9.99609375 C7.21283569 9.24670532 7.21283569 9.24670532 6.44165039 8.48217773 C5.00035892 7.06194068 3.54538692 5.65562742 2.08984375 4.25 C0 2 0 2 0 0 Z " fill="#F3E0E3" transform="translate(245,97)"/>
<path d="M0 0 C0.625 1.8125 0.625 1.8125 1 4 C-1 7 -1 7 -3.21875 8.3046875 C-6.797729 10.48625616 -9.5501841 13.16836668 -12.5 16.125 C-13.36274536 16.98581177 -13.36274536 16.98581177 -14.24291992 17.86401367 C-18.41353943 22.13965951 -21.66396346 26.45370465 -24 32 C-24.33 32 -24.66 32 -25 32 C-24.58896602 25.14943361 -22.0981794 21.78768648 -17.20703125 17.38671875 C-15.87474704 16.22994504 -14.53728308 15.07911616 -13.1953125 13.93359375 C-8.40036208 9.71028333 -3.55302285 5.32953428 0 0 Z " fill="#EEC8CE" transform="translate(31,94)"/>
<path d="M0 0 C-0.5249707 0.1647583 -1.04994141 0.3295166 -1.59082031 0.49926758 C-9.34724656 3.38634417 -14.19829079 8.75192749 -19.75 14.6875 C-21.56623243 16.62038579 -23.39566933 18.53733738 -25.234375 20.44921875 C-26.03069336 21.29830811 -26.82701172 22.14739746 -27.64746094 23.0222168 C-30.1858865 25.15627507 -31.74020422 25.68088695 -35 26 C-32.24983757 23.16389499 -29.44516906 20.4993559 -26.4375 17.9375 C-23.85532338 15.71790605 -21.40394744 13.42386524 -19.02734375 10.98828125 C-18.50664307 10.45533447 -17.98594238 9.9223877 -17.44946289 9.37329102 C-16.42213419 8.31410223 -15.40143233 7.24843358 -14.38842773 6.17553711 C-10.13029376 1.78627399 -6.23295087 -1.94330263 0 0 Z " fill="#F3DEE1" transform="translate(185,239)"/>
<path d="M0 0 C0.33 0 0.66 0 1 0 C0.90638786 5.48125737 0.80027632 10.96207708 0.68261719 16.44287109 C0.6443541 18.30706162 0.60949654 20.1713253 0.578125 22.03564453 C0.53241644 24.71673716 0.47443178 27.39732733 0.4140625 30.078125 C0.40251129 30.91055725 0.39096008 31.7429895 0.37905884 32.60064697 C0.19713905 39.74669236 0.19713905 39.74669236 -2 43 C-2.66 43 -3.32 43 -4 43 C-3.68160156 42.00484375 -3.36320312 41.0096875 -3.03515625 39.984375 C-1.3430544 33.21596759 -1.56602355 26.18707874 -1.4375 19.25 C-1.39337782 17.13358189 -1.34660673 15.01730373 -1.29469299 12.90106201 C-1.24853925 10.99178958 -1.21082536 9.08231862 -1.17358398 7.17285156 C-1.03247562 4.59360495 -0.75732938 2.45244999 0 0 Z " fill="#EBBCC3" transform="translate(36,51)"/>
<path d="M0 0 C-5.4236041 2.71023905 -9.53891201 3.41702642 -15.55859375 3.29296875 C-16.74232323 3.28660149 -16.74232323 3.28660149 -17.94996643 3.28010559 C-20.44617261 3.26344452 -22.94154192 3.22581779 -25.4375 3.1875 C-27.13996222 3.17243683 -28.84243721 3.15875129 -30.54492188 3.14648438 C-34.6969322 3.1135825 -38.8483247 3.06188951 -43 3 C-43 2.67 -43 2.34 -43 2 C-42.14881592 1.98018066 -41.29763184 1.96036133 -40.4206543 1.93994141 C-37.20916976 1.8610223 -33.99800853 1.77431045 -30.78686523 1.68261719 C-29.40706245 1.64474843 -28.02717498 1.6098292 -26.6472168 1.578125 C-18.94630632 1.39909911 -11.58122435 1.00311956 -4.05004883 -0.68212891 C-2 -1 -2 -1 0 0 Z " fill="#D76172" transform="translate(98,31)"/>
<path d="M0 0 C5.51803023 0.0687191 11.03529115 0.15660674 16.55273438 0.26245117 C18.43057747 0.29575202 20.3085219 0.32376776 22.18652344 0.34643555 C24.88260175 0.37988742 27.577747 0.43219641 30.2734375 0.48828125 C31.11619232 0.49467117 31.95894714 0.5010611 32.82723999 0.50764465 C35.19287109 0.56762695 35.19287109 0.56762695 39 1 C39.66 1.99 40.32 2.98 41 4 C39.72286133 3.76120117 39.72286133 3.76120117 38.41992188 3.51757812 C35.00563467 3.00085276 31.73171953 2.81001172 28.28125 2.71875 C26.38826172 2.66267578 26.38826172 2.66267578 24.45703125 2.60546875 C23.15121094 2.57066406 21.84539062 2.53585938 20.5 2.5 C17.90614645 2.43086471 15.31238707 2.35807888 12.71875 2.28125 C11.57341797 2.25095703 10.42808594 2.22066406 9.24804688 2.18945312 C6.1003242 2.00585174 3.0970852 1.57909163 0 1 C0 0.67 0 0.34 0 0 Z " fill="#F1D5D9" transform="translate(55,236)"/>
<path d="M0 0 C4.32504836 1.65863505 7.09418825 4.871041 10.25 8.125 C11.08144531 8.96998047 11.08144531 8.96998047 11.9296875 9.83203125 C13.29104485 11.21686028 14.64614859 12.60783204 16 14 C15.01 15.485 15.01 15.485 14 17 C12.0359393 14.92181956 10.07873094 12.83785435 8.125 10.75 C7.56941406 10.16347656 7.01382813 9.57695313 6.44140625 8.97265625 C5.90644531 8.39902344 5.37148437 7.82539062 4.8203125 7.234375 C4.32805176 6.71069336 3.83579102 6.18701172 3.32861328 5.64746094 C1.89201652 3.86610207 0.95088611 2.07537799 0 0 Z " fill="#F5DADE" transform="translate(61,70)"/>
<path d="M0 0 C0.33 0 0.66 0 1 0 C1.02505615 0.90766113 1.0501123 1.81532227 1.07592773 2.75048828 C1.17143059 6.13878234 1.27064084 9.52692669 1.37231445 12.91503906 C1.41545337 14.37756148 1.45714195 15.84012747 1.49731445 17.30273438 C1.5555307 19.4128936 1.61907288 21.52283775 1.68359375 23.6328125 C1.72025146 24.90012207 1.75690918 26.16743164 1.79467773 27.47314453 C1.98371036 30.72019016 2.3962073 33.80698948 3 37 C2.01 36.34 1.02 35.68 0 35 C-0.26686213 32.30459685 -0.34818073 29.84152536 -0.29296875 27.1484375 C-0.28872391 26.37440582 -0.28447906 25.60037415 -0.28010559 24.80288696 C-0.26328998 22.32657323 -0.22563395 19.85106842 -0.1875 17.375 C-0.17245682 15.69792841 -0.15876778 14.02084408 -0.14648438 12.34375 C-0.11337721 8.22885419 -0.06157637 4.11456431 0 0 Z " fill="#EDC3C8" transform="translate(239,55)"/>
<path d="M0 0 C0.68835938 0.01353516 1.37671875 0.02707031 2.0859375 0.04101562 C3.76597001 0.0760163 5.4455935 0.12981046 7.125 0.1875 C7.125 0.5175 7.125 0.8475 7.125 1.1875 C6.12339844 1.27386719 5.12179688 1.36023438 4.08984375 1.44921875 C-3.46217516 2.20963547 -9.01424103 3.00822463 -14.875 8.1875 C-15.535 8.1875 -16.195 8.1875 -16.875 8.1875 C-16.545 7.1975 -16.215 6.2075 -15.875 5.1875 C-15.215 5.1875 -14.555 5.1875 -13.875 5.1875 C-13.875 4.5275 -13.875 3.8675 -13.875 3.1875 C-9.16630574 0.39308799 -5.36824646 -0.20286978 0 0 Z " fill="#EFCDD2" transform="translate(134.875,1.8125)"/>
<path d="M0 0 C0.66 0 1.32 0 2 0 C0.54331217 2.96783129 -1.01232086 5.86415313 -2.625 8.75 C-3.29402344 9.94882813 -3.29402344 9.94882813 -3.9765625 11.171875 C-4.48316406 12.07679687 -4.48316406 12.07679687 -5 13 C-5.33 13 -5.66 13 -6 13 C-5.63258872 6.87647862 -4.21348564 4.21348564 0 0 Z " fill="#F4E6E8" transform="translate(12,113)"/>
<path d="M0 0 C8.44646925 6.15034169 8.44646925 6.15034169 12 10 C11.01 10.33 10.02 10.66 9 11 C7.49403892 9.54782324 5.99537896 8.08807139 4.5 6.625 C3.6646875 5.81289062 2.829375 5.00078125 1.96875 4.1640625 C0 2 0 2 0 0 Z " fill="#EEBCC3" transform="translate(72,60)"/>
<path d="M0 0 C0.66 0.33 1.32 0.66 2 1 C1.38511719 1.50789063 0.77023438 2.01578125 0.13671875 2.5390625 C-4.36647095 6.37431497 -7.90393126 9.41048337 -10 15 C-10.33 14.01 -10.66 13.02 -11 12 C-9.3125 9.125 -9.3125 9.125 -7 6 C-5.9790625 4.6078125 -5.9790625 4.6078125 -4.9375 3.1875 C-3 1 -3 1 0 0 Z " fill="#F3DDE0" transform="translate(48,36)"/>
<path d="M0 0 C3.47775179 1.51553404 5.9557984 3.5773456 8.75 6.125 C9.94882813 7.21167969 9.94882813 7.21167969 11.171875 8.3203125 C11.77515625 8.87460938 12.3784375 9.42890625 13 10 C12.01 10.66 11.02 11.32 10 12 C8.33032474 10.19019128 6.66417692 8.3773524 5 6.5625 C4.28457031 5.7880957 4.28457031 5.7880957 3.5546875 4.99804688 C0 1.11328125 0 1.11328125 0 0 Z " fill="#F0C4CB" transform="translate(66,65)"/>
<path d="M0 0 C-4.62197306 2.21854707 -7.76824163 3.38281159 -13 3 C-13 2.34 -13 1.68 -13 1 C-11.20994059 0.63779734 -9.41787943 0.28547531 -7.625 -0.0625 C-6.12839844 -0.35833984 -6.12839844 -0.35833984 -4.6015625 -0.66015625 C-2 -1 -2 -1 0 0 Z " fill="#DB7281" transform="translate(98,31)"/>
<path d="M0 0 C4.95696581 1.23924145 7.11658466 2.78577758 10 7 C9.67 7.66 9.34 8.32 9 9 C7.49704815 7.69088122 5.99770689 6.37761608 4.5 5.0625 C3.6646875 4.33160156 2.829375 3.60070313 1.96875 2.84765625 C1.3190625 2.23792969 0.669375 1.62820312 0 1 C0 0.67 0 0.34 0 0 Z " fill="#F2DCDF" transform="translate(225,36)"/>
<path d="M0 0 C1.12894876 0.93274109 2.25300876 1.87140122 3.375 2.8125 C4.00148438 3.33457031 4.62796875 3.85664062 5.2734375 4.39453125 C7 6 7 6 9 9 C6 9 6 9 4.39453125 7.5390625 C3.61142578 6.59160156 3.61142578 6.59160156 2.8125 5.625 C2.28269531 4.99851562 1.75289062 4.37203125 1.20703125 3.7265625 C0 2 0 2 0 0 Z " fill="#EDBCC3" transform="translate(57,76)"/>
<path d="M0 0 C3.7952131 1.49097658 5.61042731 3.75700849 8 7 C7.01 7 6.02 7 5 7 C0 1.53488372 0 1.53488372 0 0 Z " fill="#E8A4AE" transform="translate(61,70)"/>
<path d="M0 0 C3.16115776 1.36983503 3.9927092 1.9890638 6 5 C5.34 5.66 4.68 6.32 4 7 C0 2.25 0 2.25 0 0 Z " fill="#F7E1E4" transform="translate(65,85)"/>
</svg>
