<?xml version="1.0" encoding="UTF-8"?>
<svg version="1.1" xmlns="http://www.w3.org/2000/svg" width="271" height="268">
<path d="M0 0 C89.43 0 178.86 0 271 0 C271 88.44 271 176.88 271 268 C181.57 268 92.14 268 0 268 C0 179.56 0 91.12 0 0 Z " fill="#C81933" transform="translate(0,0)"/>
<path d="M0 0 C89.43 0 178.86 0 271 0 C271 88.44 271 176.88 271 268 C181.57 268 92.14 268 0 268 C0 179.56 0 91.12 0 0 Z M105.75 22.4375 C99.18240796 29.10027453 92.63616782 32.07633202 83.2421875 32.2109375 C81.88019687 32.23903323 80.51821789 32.26769783 79.15625 32.296875 C77.02376985 32.33788423 74.89150052 32.37479441 72.75878906 32.40136719 C57.51666177 32.60173197 57.51666177 32.60173197 44.6875 40.125 C43.48673828 41.18074219 43.48673828 41.18074219 42.26171875 42.2578125 C34.86403887 51.22702023 35.46108178 60.9996227 35.50927734 72.06811523 C35.52187611 82.99502548 34.95536094 92.64987925 26.9375 100.9375 C26.15761719 101.75992188 25.37773437 102.58234375 24.57421875 103.4296875 C22.77980915 105.22137417 20.9684982 106.99622472 19.14453125 108.7578125 C11.02766224 116.59888546 5.10313975 123.52771128 4.6875 135.1875 C4.9575354 146.87617508 12.09886703 154.25130047 20 162 C21.0044326 162.94371449 22.01220459 163.88388851 23.0234375 164.8203125 C23.51191162 165.28187744 24.00038574 165.74344238 24.50366211 166.21899414 C25.84816938 167.47879722 27.21821747 168.71118475 28.58984375 169.94140625 C35.55573388 178.78142566 35.57147874 188.90403135 35.5625 199.6875 C35.58432853 212.01771005 36.01375257 220.60835145 44.8046875 230.015625 C50.69490183 235.33987567 57.18099232 237.10691229 64.9765625 237.17578125 C66.3841292 237.19900019 67.79168129 237.22311834 69.19921875 237.24804688 C71.40423062 237.28296567 73.6087118 237.31240008 75.81396484 237.32592773 C85.92311145 237.3999749 95.08819345 237.77866899 102.875 245.0625 C103.52082031 245.65933594 104.16664062 246.25617188 104.83203125 246.87109375 C106.9490932 248.95001044 109.03933419 251.05371977 111.12304688 253.16601562 C111.59806641 253.64748047 112.07308594 254.12894531 112.5625 254.625 C113.03365234 255.10259766 113.50480469 255.58019531 113.99023438 256.07226562 C120.78307362 262.88410582 126.87301076 267.26525568 136.75 267.375 C152.06633381 267.04065176 160.30625089 256.8261457 170.375 246.5 C171.12523437 245.7059375 171.87546875 244.911875 172.6484375 244.09375 C178.59151609 238.80223816 184.39740612 237.8923199 192.07421875 237.82421875 C193.47853037 237.80100553 194.88282727 237.7768876 196.28710938 237.75195312 C198.48113669 237.71701094 200.67462617 237.68757925 202.86889648 237.67407227 C214.72792929 237.58696218 223.31771542 236.18066656 232.2734375 227.8671875 C237.76192783 221.93167081 239.10260848 216.10644836 239.17578125 208.21484375 C239.19900619 206.86521924 239.22312455 205.51560986 239.24804688 204.16601562 C239.28288785 202.06215659 239.31236238 199.95884636 239.32592773 197.85473633 C239.41230767 186.62135741 239.99199752 176.83040867 248.1171875 168.3046875 C249.68563334 166.809558 251.27197904 165.33299807 252.875 163.875 C261.59672714 155.77930221 269.7538535 147.73116239 270.375 135.25 C270.02284406 122.86893865 262.69720266 115.43221649 254.14453125 107.27734375 C247.13423569 100.57835484 240.28652986 93.09494584 239.87402344 82.88061523 C239.86918945 81.61934814 239.86435547 80.35808105 239.859375 79.05859375 C239.84102755 77.65558298 239.82145548 76.25258779 239.80078125 74.84960938 C239.77200118 72.65329986 239.7500046 70.45798397 239.74951172 68.26147461 C239.73286868 57.77279211 238.66665661 49.80951128 231.89453125 41.37890625 C231.20746094 40.77949219 230.52039063 40.18007813 229.8125 39.5625 C229.13832031 38.94503906 228.46414062 38.32757813 227.76953125 37.69140625 C218.44774277 31.9984099 208.00182564 32.56425821 197.44970703 32.63964844 C185.81632301 32.68978033 177.95791255 31.1613595 169.5078125 22.78515625 C168.03913821 21.21815309 166.57834723 19.64372892 165.125 18.0625 C156.68973593 9.31746881 149.97550682 2.9185329 137.25 2.4375 C122.79697662 3.29473745 115.32064999 12.51347216 105.75 22.4375 Z " fill="#F9F8F9" transform="translate(0,0)"/>
<path d="M0 0 C7.83543781 2.51853358 11.74998899 8.59390783 15.4921875 15.57421875 C20.65585753 26.27039238 22.18566699 39.16056486 18.84375 50.7578125 C15.78867795 58.09847173 10.41914388 62.33725587 3.82421875 66.46875 C2.02722757 67.49993445 2.02722757 67.49993445 0.96875 68.6328125 C0.88084025 70.92432667 0.86180962 73.21853774 0.87109375 75.51171875 C0.8725087 76.1983812 0.87392365 76.88504364 0.87538147 77.59251404 C0.88099521 79.79349051 0.89354993 81.99436659 0.90625 84.1953125 C0.91126324 85.68424333 0.91582645 87.17317574 0.91992188 88.66210938 C0.93096907 92.31904325 0.94824287 95.97591808 0.96875 99.6328125 C7.1203355 94.4315409 12.82029425 88.87193368 18.46875 83.1328125 C20.08079413 81.49489286 21.69534861 79.85943984 23.3125 78.2265625 C24.01568359 77.51177734 24.71886719 76.79699219 25.44335938 76.06054688 C27.51259366 74.07132938 29.61531593 72.19502492 31.78881836 70.32373047 C35.91305194 66.74137357 39.71520872 62.91578503 43.50390625 58.984375 C44.90354264 57.5526477 46.30395609 56.1216797 47.70507812 54.69140625 C49.88038107 52.46655816 52.05065983 50.23764299 54.20825195 47.99560547 C56.31385623 45.81125811 58.43811375 43.64659221 60.56640625 41.484375 C61.20514175 40.81153473 61.84387726 40.13869446 62.50196838 39.44546509 C66.58304275 35.33993753 69.12706133 33.7708606 74.96875 33.6328125 C76.96875 36.6328125 76.96875 36.6328125 76.8203125 39.8359375 C75.86263161 44.10596422 74.36131229 47.52884145 72.34375 51.3828125 C71.9825708 52.0830957 71.6213916 52.78337891 71.24926758 53.50488281 C63.73798228 67.87143156 54.91577438 81.31873524 39.96875 88.6328125 C39.33098633 88.95233887 38.69322266 89.27186523 38.03613281 89.60107422 C29.90672137 93.65829774 21.85746555 97.53621129 12.96875 99.6328125 C12.96875 100.2928125 12.96875 100.9528125 12.96875 101.6328125 C12.30875 101.6328125 11.64875 101.6328125 10.96875 101.6328125 C10.5975 102.4990625 10.5975 102.4990625 10.21875 103.3828125 C8.80191683 105.9331122 7.09247463 107.65066951 4.96875 109.6328125 C6.46721794 113.25682463 8.52663493 115.2645828 11.46875 117.8203125 C12.3659375 118.60792969 13.263125 119.39554687 14.1875 120.20703125 C15.56421875 121.40779297 15.56421875 121.40779297 16.96875 122.6328125 C18.63823206 124.12967836 20.30496623 125.62961546 21.96875 127.1328125 C22.79117188 127.87273437 23.61359375 128.61265625 24.4609375 129.375 C26.15467894 130.89989494 27.84736169 132.42596652 29.5390625 133.953125 C35.68093712 139.49395991 41.85576749 144.98746187 48.15625 150.34765625 C54.10094445 155.40871345 60.00945342 160.49953348 65.78125 165.7578125 C66.29075195 166.21897461 66.80025391 166.68013672 67.32519531 167.15527344 C71.86372771 171.32369746 71.86372771 171.32369746 72.13671875 174.7265625 C72.14316406 175.520625 72.14960938 176.3146875 72.15625 177.1328125 C72.17042969 177.926875 72.18460938 178.7209375 72.19921875 179.5390625 C71.96875 181.6328125 71.96875 181.6328125 69.96875 183.6328125 C65.61001624 184.54830863 61.56295356 184.61301365 57.70703125 182.2421875 C55.67065867 180.45793724 53.81682219 178.61097673 51.96875 176.6328125 C51.18886719 175.8696875 50.40898437 175.1065625 49.60546875 174.3203125 C46.61355794 171.2707797 43.85206611 168.07977937 41.09375 164.8203125 C40.02498153 163.56620002 38.95597288 162.31229218 37.88671875 161.05859375 C37.37931152 160.46256348 36.8719043 159.8665332 36.34912109 159.25244141 C31.94285908 154.0824481 27.43086149 149.01782618 22.84375 144.0078125 C22.38758301 143.50958984 21.93141602 143.01136719 21.46142578 142.49804688 C18.78575497 139.58512897 16.08821509 136.69462268 13.37109375 133.8203125 C12.77377441 133.18561035 12.17645508 132.5509082 11.56103516 131.89697266 C10.3891513 130.6530718 9.21313721 129.41304711 8.03271484 128.17724609 C3.96875 123.8564278 3.96875 123.8564278 3.96875 121.6328125 C3.30875 121.6328125 2.64875 121.6328125 1.96875 121.6328125 C2.12605591 122.1870993 2.28336182 122.74138611 2.44543457 123.31246948 C3.01225636 125.82571657 3.20382954 128.18563789 3.34179688 130.75830078 C3.42693542 132.29238083 3.42693542 132.29238083 3.51379395 133.85745239 C3.57111694 134.96152435 3.62843994 136.06559631 3.6875 137.203125 C3.78170227 138.92847977 3.78170227 138.92847977 3.87780762 140.68869019 C4.07842909 144.37821128 4.27368714 148.06799376 4.46875 151.7578125 C4.66457823 155.38764587 4.8614649 159.01741935 5.05908203 162.64715576 C5.18585292 165.00834457 5.3092529 167.36971688 5.42919922 169.73126221 C5.69332936 174.88829351 5.98270242 180.03368146 6.42578125 185.17871094 C6.49116089 186.00426483 6.55654053 186.82981873 6.62390137 187.6803894 C6.7444788 189.16339425 6.88193319 190.64518555 7.0411377 192.12454224 C7.43229383 197.17342066 6.16672656 199.77889541 2.96875 203.6328125 C-0.03125 205.6328125 -0.03125 205.6328125 -2.40625 205.6328125 C-6.21940808 204.18018085 -8.36545675 202.30506003 -10.03125 198.6328125 C-11.47327134 186.11987387 -9.32291406 172.5890539 -8.53125 160.0703125 C-8.24573807 155.54842942 -7.96525268 151.02627179 -7.6875 146.50390625 C-7.62187866 145.49106064 -7.55625732 144.47821503 -7.48864746 143.43467712 C-7.06241181 136.49287502 -6.95857563 129.5869136 -7.03125 122.6328125 C-13.23746633 129.49473642 -13.23746633 129.49473642 -19.34375 136.4453125 C-21.44266514 138.86489523 -23.58387201 141.23262428 -25.78125 143.5625 C-31.5421547 149.68410202 -36.96428393 155.8622959 -41.90942383 162.6706543 C-42.90686079 164.0242738 -43.96385173 165.33364847 -45.03125 166.6328125 C-45.69125 166.6328125 -46.35125 166.6328125 -47.03125 166.6328125 C-47.27875 167.19484375 -47.52625 167.756875 -47.78125 168.3359375 C-49.24399867 171.02373819 -50.99929873 173.09686732 -53.03125 175.3828125 C-53.7325 176.18203125 -54.43375 176.98125 -55.15625 177.8046875 C-57.03125 179.6328125 -57.03125 179.6328125 -59.03125 179.6328125 C-59.03125 180.2928125 -59.03125 180.9528125 -59.03125 181.6328125 C-60.82218191 181.71367397 -62.61414628 181.77193952 -64.40625 181.8203125 C-65.40398437 181.85511719 -66.40171875 181.88992187 -67.4296875 181.92578125 C-68.28820312 181.82910156 -69.14671875 181.73242188 -70.03125 181.6328125 C-72.06280057 178.58548665 -72.34685065 177.73861445 -72.40625 174.2578125 C-72.43460938 173.50757813 -72.46296875 172.75734375 -72.4921875 171.984375 C-71.44580301 166.64604058 -66.86323511 163.51009229 -62.78125 160.3203125 C-58.64154184 157.0052474 -54.82471479 153.59548031 -51.17578125 149.75 C-48.5989621 147.20603647 -45.87681034 144.86219208 -43.14331055 142.48876953 C-39.86874002 139.61126576 -36.70066434 136.62511725 -33.53125 133.6328125 C-32.14587247 132.32938548 -30.7604545 131.02600145 -29.375 129.72265625 C-28.66730469 129.0560498 -27.95960937 128.38944336 -27.23046875 127.70263672 C-23.50287024 124.19435739 -19.76661112 120.69532233 -16.03125 117.1953125 C-14.67704448 115.92582269 -13.32287414 114.65629536 -11.96875 113.38671875 C-10.98958333 112.46875 -10.01041667 111.55078125 -9.03125 110.6328125 C-11.16230777 104.30472568 -15.61331481 100.42206993 -20.21875 95.7578125 C-21.05728516 94.86578125 -21.89582031 93.97375 -22.75976562 93.0546875 C-27.44816841 87.97436542 -27.44816841 87.97436542 -33.8671875 86.53125 C-34.91132812 86.89476563 -35.95546875 87.25828125 -37.03125 87.6328125 C-40.97855277 88.20507386 -44.37284258 88.55265791 -47.9609375 86.5625 C-57.52096126 78.66853847 -65.21138131 67.69549291 -72.984375 58.12109375 C-75.91927184 54.55328977 -78.95796669 51.08160953 -82.03125 47.6328125 C-81.70125 46.9728125 -81.37125 46.3128125 -81.03125 45.6328125 C-80.40464478 46.26727295 -80.40464478 46.26727295 -79.76538086 46.91455078 C-77.83591929 48.86504553 -75.90236744 50.81143792 -73.96875 52.7578125 C-73.31197266 53.42296875 -72.65519531 54.088125 -71.97851562 54.7734375 C-65.82550444 61.06722195 -65.82550444 61.06722195 -59.03125 66.6328125 C-58.37125 66.6328125 -57.71125 66.6328125 -57.03125 66.6328125 C-58.32948475 62.81718855 -59.78091858 60.56190371 -62.71875 57.8203125 C-68.51840246 52.23117374 -73.75497797 46.47484775 -78.03125 39.6328125 C-74.36766984 41.16440781 -72.11211589 43.36052201 -69.37109375 46.203125 C-68.0572168 47.54697266 -68.0572168 47.54697266 -66.71679688 48.91796875 C-64.8789716 50.81718548 -63.04304418 52.71824048 -61.20898438 54.62109375 C-60.33435547 55.51441406 -59.45972656 56.40773437 -58.55859375 57.328125 C-57.76187256 58.15328613 -56.96515137 58.97844727 -56.14428711 59.82861328 C-54.11408543 61.95748398 -54.11408543 61.95748398 -51.03125 61.6328125 C-51.61070005 58.3483721 -52.54985416 56.75787354 -54.9453125 54.4609375 C-55.53876465 53.88230957 -56.1322168 53.30368164 -56.74365234 52.70751953 C-57.37480957 52.10536621 -58.0059668 51.50321289 -58.65625 50.8828125 C-59.93415888 49.63732962 -61.21021802 48.38994589 -62.484375 47.140625 C-63.40379883 46.24005371 -63.40379883 46.24005371 -64.34179688 45.32128906 C-67.41753682 42.247327 -70.26308208 38.98375262 -73.03125 35.6328125 C-70.03125 35.6328125 -70.03125 35.6328125 -68.48828125 36.91796875 C-67.67423828 37.79775391 -67.67423828 37.79775391 -66.84375 38.6953125 C-63.71201204 41.96550624 -60.45456717 44.97374708 -57.01953125 47.921875 C-55.68958495 49.06630816 -54.37436594 50.22807271 -53.07421875 51.40625 C-52.46191406 51.95539063 -51.84960938 52.50453125 -51.21875 53.0703125 C-50.67605469 53.56402344 -50.13335937 54.05773437 -49.57421875 54.56640625 C-47.93253353 55.91709251 -47.93253353 55.91709251 -45.03125 55.6328125 C-46.5704301 51.96529245 -48.78610452 49.64700677 -51.6015625 46.8671875 C-52.49746094 45.97773437 -53.39335938 45.08828125 -54.31640625 44.171875 C-55.25355469 43.25148437 -56.19070312 42.33109375 -57.15625 41.3828125 C-58.11113637 40.43796394 -59.06556859 39.49265617 -60.01953125 38.546875 C-62.35234087 36.23762912 -64.68969086 33.93318047 -67.03125 31.6328125 C-66.70125 30.9728125 -66.37125 30.3128125 -66.03125 29.6328125 C-65.14824219 30.39464844 -64.26523438 31.15648438 -63.35546875 31.94140625 C-57.81569107 36.71097237 -52.27565145 41.46986057 -46.59375 46.0703125 C-41.96806191 49.83170909 -37.42390026 53.68042505 -32.90625 57.5703125 C-32.24181885 58.1387085 -31.5773877 58.70710449 -30.89282227 59.29272461 C-29.96747681 60.09335327 -29.96747681 60.09335327 -29.0234375 60.91015625 C-28.47026855 61.38702881 -27.91709961 61.86390137 -27.34716797 62.35522461 C-25.64702819 64.00584269 -25.06553067 65.14683357 -24.8984375 67.515625 C-24.90101562 68.25554687 -24.90359375 68.99546875 -24.90625 69.7578125 C-24.90238281 70.84449219 -24.90238281 70.84449219 -24.8984375 71.953125 C-25.03125 74.6328125 -25.03125 74.6328125 -25.45166016 76.50854492 C-25.89160634 78.63901094 -26.1545736 80.45783263 -26.03125 82.6328125 C-24.26615923 85.15570726 -22.90717471 86.72105276 -20.65625 88.6953125 C-20.15480469 89.17291016 -19.65335938 89.65050781 -19.13671875 90.14257812 C-14.67176404 94.31246725 -9.8759008 97.86475077 -5.03125 101.6328125 C-4.70125 90.4128125 -4.37125 79.1928125 -4.03125 67.6328125 C-5.68125 66.9728125 -7.33125 66.3128125 -9.03125 65.6328125 C-16.87227382 59.91816802 -21.03140738 54.29895456 -23.78125 45.1328125 C-25.20845195 30.86079304 -22.03342009 17.20356908 -12.8515625 5.96484375 C-9.03395345 2.23309787 -5.55268951 -0.68306895 0 0 Z " fill="#FDFAFA" transform="translate(139.03125,30.3671875)"/>
<path d="M0 0 C4.32504836 1.65863505 7.09418825 4.871041 10.25 8.125 C11.08144531 8.96998047 11.08144531 8.96998047 11.9296875 9.83203125 C13.29104485 11.21686028 14.64614859 12.60783204 16 14 C15.01 15.485 15.01 15.485 14 17 C12.0359393 14.92181956 10.07873094 12.83785435 8.125 10.75 C7.56941406 10.16347656 7.01382813 9.57695313 6.44140625 8.97265625 C5.90644531 8.39902344 5.37148437 7.82539062 4.8203125 7.234375 C4.32805176 6.71069336 3.83579102 6.18701172 3.32861328 5.64746094 C1.89201652 3.86610207 0.95088611 2.07537799 0 0 Z " fill="#F5DADE" transform="translate(61,70)"/>
<path d="M0 0 C8.44646925 6.15034169 8.44646925 6.15034169 12 10 C11.01 10.33 10.02 10.66 9 11 C7.49403892 9.54782324 5.99537896 8.08807139 4.5 6.625 C3.6646875 5.81289062 2.829375 5.00078125 1.96875 4.1640625 C0 2 0 2 0 0 Z " fill="#EEBCC3" transform="translate(72,60)"/>
<path d="M0 0 C3.47775179 1.51553404 5.9557984 3.5773456 8.75 6.125 C9.94882813 7.21167969 9.94882813 7.21167969 11.171875 8.3203125 C11.77515625 8.87460938 12.3784375 9.42890625 13 10 C12.01 10.66 11.02 11.32 10 12 C8.33032474 10.19019128 6.66417692 8.3773524 5 6.5625 C4.28457031 5.7880957 4.28457031 5.7880957 3.5546875 4.99804688 C0 1.11328125 0 1.11328125 0 0 Z " fill="#F0C4CB" transform="translate(66,65)"/>
<path d="M0 0 C1.12894876 0.93274109 2.25300876 1.87140122 3.375 2.8125 C4.00148438 3.33457031 4.62796875 3.85664062 5.2734375 4.39453125 C7 6 7 6 9 9 C6 9 6 9 4.39453125 7.5390625 C3.61142578 6.59160156 3.61142578 6.59160156 2.8125 5.625 C2.28269531 4.99851562 1.75289062 4.37203125 1.20703125 3.7265625 C0 2 0 2 0 0 Z " fill="#EDBCC3" transform="translate(57,76)"/>
<path d="M0 0 C3.7952131 1.49097658 5.61042731 3.75700849 8 7 C7.01 7 6.02 7 5 7 C0 1.53488372 0 1.53488372 0 0 Z " fill="#E8A4AE" transform="translate(61,70)"/>
<path d="M0 0 C3.16115776 1.36983503 3.9927092 1.9890638 6 5 C5.34 5.66 4.68 6.32 4 7 C0 2.25 0 2.25 0 0 Z " fill="#F7E1E4" transform="translate(65,85)"/>
</svg>
